<?xml version="1.0" encoding="UTF-8"?>
<!DOCTYPE svg PUBLIC "-//W3C//DTD SVG 1.1//EN" "http://www.w3.org/Graphics/SVG/1.1/DTD/svg11.dtd">
<!-- Creator: CorelDRAW -->
<svg xmlns="http://www.w3.org/2000/svg" xml:space="preserve" width="89.7008mm" height="66.3809mm" version="1.1" style="shape-rendering:geometricPrecision; text-rendering:geometricPrecision; image-rendering:optimizeQuality; fill-rule:evenodd; clip-rule:evenodd"
viewBox="0 0 1615.23 1195.31"
 xmlns:xlink="http://www.w3.org/1999/xlink"
 xmlns:xodm="http://www.corel.com/coreldraw/odm/2003">
 <defs>
  <style type="text/css">
   <![CDATA[
    .fil0 {fill:#5a2775}
   ]]>
  </style>
 </defs>
 <g id="Capa_x0020_1">
  <metadata id="CorelCorpID_0Corel-Layer"/>
  <g id="_1826143168624">
   <path class="fil0" d="M1418.68 1018.57c-10.75,66.58 -66.38,120.48 -146.5,109.67 -161.16,-21.75 -138.06,-277.23 37.5,-254.87 64.45,8.21 121.28,69.18 109,145.2zm-1126.7 -5.79c-7.1,-74.33 48.33,-133.82 113.96,-139.95 77.45,-7.23 136.94,47.55 142.6,116.65 13.91,169.91 -240.49,191.6 -256.56,23.3zm320.83 -44.92c-16.22,-29.82 -18.15,-100.62 -114.08,-143.33 -21.6,-9.62 -14.19,-27.61 -14.18,-52.14l0 -191.15c0,-60.33 -3.33,-466.47 0.61,-514.89 50.82,-3.98 268.83,-0.56 337.95,-0.56 114.6,0 113.24,-11.65 113.16,57.86 -0.09,78.45 3.75,822.26 -1.54,844.38l-321.93 -0.17zm388.82 -0.34c-2.83,-24.5 -0.76,-571.63 -0.93,-626.78 -0.12,-39.79 14.24,-49.88 54.09,-49.16 35.45,0.64 71.51,-0.94 106.74,0.32 4.97,57.07 0.73,134.51 0.71,193.77 -0.02,68.04 -10.42,124.04 29.8,163.98 39.51,39.24 96.84,29.02 163.98,29.01 32.98,-0 173.06,-1.93 193.52,1.13 0.28,23.62 2.53,250.42 -2.08,263.87 -8.9,25.93 -31.36,25.76 -64.01,24.25 -3.83,-7.47 -8.49,-27.75 -11.65,-36.29 -4.53,-12.23 -10.22,-22.89 -16.31,-32.81 -41.02,-66.89 -124.19,-106.48 -207.84,-86.78 -130.03,30.62 -140.85,148.23 -149.17,154.22 -6.17,4.44 -84.47,3.07 -96.85,1.27zm225.94 -674.31c11.77,-2.99 62.58,-2.76 75,-0.02 18.19,4 39.24,19.67 50.36,30.5 38.23,37.25 102.56,130.42 139.67,178.88 20.92,27.32 48.89,65.56 52.08,110.69 -70.78,2.48 -162.94,0.21 -237.91,0.37 -27.51,0.06 -52.71,5.32 -69.61,-12.03 -19.19,-19.72 -10.01,-113.29 -10.01,-147.77 0,-51.18 -2.74,-110.41 0.41,-160.6zm255.88 740.57c38.04,-3.51 102.02,3.39 126.18,-71.41 9.12,-28.23 4.37,-151.05 4.4,-189.98 0.14,-168.68 12.26,-200.72 -73.89,-314.44 -46.31,-61.12 -121.91,-176.76 -177.72,-210.38 -48.89,-29.46 -111.17,-20.93 -174.38,-20.93l-147.74 0.1c-15.62,0.37 -26.3,4.06 -38.62,4.99 -6.94,-55.07 12.76,-145.85 -14.43,-188.25 -33.75,-52.64 -87.52,-42.22 -161.23,-42.22 -67.58,0 -135.15,0 -202.73,0 -65.33,0 -138.76,-3.13 -203.34,0.48l-0.5 804.35c-50.19,8.42 -70.11,8.78 -107.67,34.19 -25.11,16.99 -50.56,45.05 -65.94,75.99 -77.19,155.26 81.46,323.84 236.3,268.19 70.82,-25.46 108.27,-72.86 129.54,-151.11 51.3,-1.54 473.8,-4.32 486.68,2.4 5.06,6.68 17.6,48.15 26.51,63.32 59.57,101.41 196.47,129.45 296.44,45.61 44.86,-37.62 50.29,-87.69 62.14,-110.89z"/>
   <path class="fil0" d="M864.34 492.11c7.9,-9.56 20.1,-19.77 25.25,-29.61 -5.19,-7.28 -37.84,-35.88 -46.2,-40.44 -13.39,7.55 -154.07,170.14 -170.87,183.08 -10.13,-4.61 -43.04,-35.51 -51.96,-44.34 -7.18,-7.11 -42.36,-39.44 -49.4,-42.17 -8.62,7.87 -11.83,12.78 -20.18,22.13 -6.8,7.62 -15.57,14.15 -18.59,26l145.93 129.6 186.03 -204.25z"/>
   <path class="fil0" d="M1.64 194.81l61.68 0.29c8.2,-25.84 -3.35,-84.97 3.25,-110.1 8.25,-31.4 61.07,-14.79 95,-20.33l0.48 -61.99c-15.11,-2.86 -70.12,-2.54 -85.86,-0.29 -54.88,7.85 -75.65,54.23 -75.45,103.87 0.1,26.06 -2.24,64.01 0.89,88.55z"/>
   <path class="fil0" d="M2.68 960.63c6.84,33.78 35.31,64.47 68.25,69.8l89.47 1.67 -0.05 -61.53c-18.84,-0.55 -67.11,7.2 -77.79,-5.53 -9.08,-2.05 -12.47,-4.31 -15.36,-14.36 -6.83,-13.14 -3.31,-95.96 -3.36,-110.38l-62.11 -0.14 0.95 120.48z"/>
   <polygon class="fil0" points="0.97,388.12 65.13,387.88 64.74,259 0.79,259.86 "/>
   <path class="fil0" d="M2.72 583.08l59.42 -2.13c3.82,-16.05 2.71,-106.55 1.08,-127.22l-61.4 -0.16 0.91 129.51z"/>
   <path class="fil0" d="M61.87 774.85l0.94 -126.43c-16.86,-2.1 -46.08,-2.86 -62.16,1.27l0.58 125.56 60.64 -0.4z"/>
   <path class="fil0" d="M225.79 62.61c22.65,4.38 102.12,2.8 128.09,1.24l-0.24 -59.48 -126.28 0.51 -1.57 57.72z"/>
  </g>
 </g>
</svg>