<?xml version="1.0" encoding="UTF-8"?>
<!DOCTYPE svg PUBLIC "-//W3C//DTD SVG 1.1//EN" "http://www.w3.org/Graphics/SVG/1.1/DTD/svg11.dtd">
<!-- Creator: CorelDRAW -->
<svg xmlns="http://www.w3.org/2000/svg" xml:space="preserve" width="5.0256mm" height="5.023mm" version="1.1" style="shape-rendering:geometricPrecision; text-rendering:geometricPrecision; image-rendering:optimizeQuality; fill-rule:evenodd; clip-rule:evenodd"
viewBox="0 0 58.29 58.26"
 xmlns:xlink="http://www.w3.org/1999/xlink"
 xmlns:xodm="http://www.corel.com/coreldraw/odm/2003">
 <defs>
  <style type="text/css">
   <![CDATA[
    .fil0 {fill:#5a2775}
   ]]>
  </style>
 </defs>
 <g id="Capa_x0020_1">
  <metadata id="CorelCorpID_0Corel-Layer"/>
  <path class="fil0" d="M24.31 58.21l-0.02 -20.74c-1.44,-0.3 -6.36,0.24 -7.29,-0.15 -0.12,-1.11 -0.01,-5.55 -0.02,-7.33 -0.01,-0.9 -0.08,-0.78 0.17,-0.86l7.17 -0.03c0.1,-2.69 -0.22,-5.94 0.17,-8.51 0.35,-2.28 1.55,-4.73 2.77,-5.89 1.81,-1.71 3.21,-2.36 5.95,-2.74 2.69,-0.37 5.43,-0.06 8.05,0.46l-0.01 6.88c-3.08,0.3 -5.67,-0.52 -7.18,1.79 -1.2,1.83 -0.96,5.46 -0.91,7.97 0.77,0.2 6.23,-0.04 7.83,0.08l-1.12 8.22 -6.71 0.06 -0.03 20.8c4.56,-0.07 9.4,0.19 13.86,-0.14 4.54,-0.33 7.32,-2.32 9.11,-4.89 2.33,-3.36 2.17,-7.23 2.17,-11.92 0,-4.65 0,-9.3 0,-13.96 0,-4.64 0.12,-9.44 -0.03,-14.06 -0.07,-2.25 -0.19,-4.1 -0.96,-6.02 -0.66,-1.68 -1.81,-3.24 -2.85,-4.12 -3.09,-2.62 -5.7,-3.1 -10.85,-3.1l-28.01 0c-4.96,0 -8.01,0.13 -11.22,2.72 -5.06,4.07 -4.27,10.45 -4.27,16.8l0 21.03c0,4.55 -0.29,8.71 1.85,12.15 1.62,2.6 4.45,4.89 8.67,5.3 4.35,0.42 9.28,0.16 13.75,0.2z"/>
 </g>
</svg>