<?xml version="1.0" encoding="UTF-8"?>
<!DOCTYPE svg PUBLIC "-//W3C//DTD SVG 1.1//EN" "http://www.w3.org/Graphics/SVG/1.1/DTD/svg11.dtd">
<!-- Creator: CorelDRAW -->
<svg xmlns="http://www.w3.org/2000/svg" xml:space="preserve" width="4.9977mm" height="4.9977mm" version="1.1" style="shape-rendering:geometricPrecision; text-rendering:geometricPrecision; image-rendering:optimizeQuality; fill-rule:evenodd; clip-rule:evenodd"
viewBox="0 0 467.47 467.47"
 xmlns:xlink="http://www.w3.org/1999/xlink"
 xmlns:xodm="http://www.corel.com/coreldraw/odm/2003">
 <defs>
  <style type="text/css">
   <![CDATA[
    .fil0 {fill:#5a2775}
   ]]>
  </style>
 </defs>
 <g id="Capa_x0020_1">
  <metadata id="CorelCorpID_0Corel-Layer"/>
  <path class="fil0" d="M233.73 355.73c67.1,0 122,-54.9 122,-122 0,-67.09 -54.9,-122 -122,-122 -67.1,0 -122,54.91 -122,122 0,67.1 54.9,122 122,122zm0 -44.74c42.49,0 77.26,-34.77 77.26,-77.26 0,-42.48 -34.77,-77.26 -77.26,-77.26 -42.48,0 -77.26,34.78 -77.26,77.26 0,42.49 34.78,77.26 77.26,77.26zm-98.75 156.48l197.5 0c74.24,0 134.98,-60.74 134.98,-134.98l0 -197.5c0,-74.24 -60.74,-134.98 -134.98,-134.98l-197.5 0c-74.24,0 -134.98,60.74 -134.98,134.98l0 197.5c0,74.24 60.74,134.98 134.98,134.98zm-2.68 -47.63l202.87 0c46.56,0 84.67,-38.11 84.67,-84.67l0 -202.87c0,-46.56 -38.11,-84.67 -84.67,-84.67l-202.87 0c-46.56,0 -84.67,38.11 -84.67,84.67l0 202.87c0,46.56 38.11,84.67 84.67,84.67zm224.96 -339.04c-16.57,0 -30,13.42 -30,30 0,16.57 13.42,30.01 30,30.01 16.57,0 30.01,-13.43 30.01,-30.01 0,-16.57 -13.43,-30 -30.01,-30z"/>
 </g>
</svg>