<?xml version="1.0" encoding="UTF-8"?>
<!DOCTYPE svg PUBLIC "-//W3C//DTD SVG 1.1//EN" "http://www.w3.org/Graphics/SVG/1.1/DTD/svg11.dtd">
<!-- Creator: CorelDRAW -->
<svg xmlns="http://www.w3.org/2000/svg" xml:space="preserve" width="72.6888mm" height="80.6345mm" version="1.1" style="shape-rendering:geometricPrecision; text-rendering:geometricPrecision; image-rendering:optimizeQuality; fill-rule:evenodd; clip-rule:evenodd"
viewBox="0 0 1134.63 1258.66"
 xmlns:xlink="http://www.w3.org/1999/xlink"
 xmlns:xodm="http://www.corel.com/coreldraw/odm/2003">
 <defs>
  <style type="text/css">
   <![CDATA[
    .fil0 {fill:#5a2775}
   ]]>
  </style>
 </defs>
 <g id="Capa_x0020_1">
  <metadata id="CorelCorpID_0Corel-Layer"/>
  <g id="_1826145286432">
   <path class="fil0" d="M565.97 1137.67c-98.48,0 -188.93,-18.45 -265.82,-55.42 -37.38,-17.97 -71.5,-42.82 -92.53,-68.42 -23.13,-28.14 -46.57,-78.97 -14.54,-115.79 23.05,18.85 39.77,34.27 71.91,52.74 141.56,81.33 368.59,90.37 522.14,38.19 119.19,-40.5 137.1,-82.84 158.17,-89.28 28.66,43.1 1.36,91.39 -20.63,117.37 -73.99,87.42 -240.58,120.61 -358.7,120.61zm46.73 -236.77c-120.47,7.55 -271.53,-15.64 -364.85,-85.34 -22.15,-16.54 -39.63,-32.08 -54.7,-57.36 -20.63,-34.61 -17.21,-50.69 -6.77,-89.17 15.36,0.96 52.7,14.68 71.33,19.07 10.19,2.4 27.33,5.17 37.47,8.44 12.11,3.91 14.47,12.57 21.17,21.75 72.52,99.37 272.31,155.77 387.59,147.4l95.13 -6.19c-24.1,21.96 -143.13,38.69 -186.38,41.4zm-120.64 -190.55l-12.03 -6.01c7.25,-4.32 12.69,-4.44 22.17,-4.36 36.04,2.37 123.17,-21.65 155.41,-33.28 71.57,-25.82 157.24,-75.1 184.51,-148.81 19.12,-51.67 4.97,-15.28 73.45,-67.41 18.76,-14.28 30.54,-32.3 46.97,-45.29 37.37,8.1 137.63,75.95 138.22,143.96 0.59,68.07 -83.23,120.41 -133.96,145.07 -118.06,57.39 -291.24,65.39 -422.79,31.78 -16.72,-4.27 -36.19,-11.89 -51.95,-15.66zm-61.16 -120.3c-119.02,0.14 -246.68,-31.6 -323.17,-88.44 -67.25,-49.97 -103.98,-126.62 -27.46,-196.76 10.19,-9.35 44.64,-36.72 61.05,-41.22 1.21,69.46 -1.84,94.77 33.07,142.64 21.89,30.01 58.18,57.99 96.91,78.35 134.04,70.48 247.58,68.15 391.53,62.44 -54.03,28.72 -161.12,42.9 -231.93,42.98zm65.08 -546.28c290.85,-40.37 629.28,156.52 366.9,316.6 -62.41,38.08 -139.95,59.4 -222.33,67.59 -322.89,32.11 -619.81,-161.81 -368.72,-316.65 66.96,-41.29 135.05,-55.18 224.16,-67.55zm487.41 326.43c0.94,-19.51 9.54,-35.03 10.06,-56.53 1.75,-72.25 5.8,-117.83 -33.67,-169.84 -36.44,-48.02 -93.53,-81.8 -165.38,-107.59 -142.01,-50.98 -329.61,-47.27 -468.66,5.41 -84.16,31.88 -158.61,81.56 -180.22,162.19 -5.1,19.04 -19.78,21.07 -36.98,31.61 -58.44,35.82 -108.21,89.05 -107.99,164.23 0.13,44.22 -4.32,86.21 10.08,124.14 17.4,45.81 59.49,81.57 98.81,105.37 13.36,8.09 29.24,14.57 42.07,23.44 -2.62,28.63 -10.29,38.73 -10,74.71 0.21,26.17 -2.4,59.06 2.69,83.11 4.29,20.27 24.84,46.88 17.74,64.36 -9.54,23.48 -18.65,33.21 -20.46,65.13 -2.93,51.47 -3.92,113.69 18.44,153.25 138.58,245.07 775.24,206.14 830,-39.04 8.34,-37.34 6.04,-126.26 -6.58,-157.89 -18.11,-45.42 -16.92,-16.76 0.59,-61.27 16.54,-42.02 -3.04,-21.41 37.56,-45.8 34.88,-20.96 68.87,-47.37 89.89,-82.51 28.45,-47.57 22.65,-84.72 22.91,-146.06 0.42,-99.16 -79.63,-160.36 -150.91,-190.4z"/>
   <path class="fil0" d="M474.01 288.32l-99.16 9.41c1.98,19.41 39.37,41.38 61.44,50.55 31.82,13.21 79.07,11.94 97.96,19.76 3.59,8.19 1.52,22.43 2.9,34.36l65.95 0.46 0.69 -36.12c45.95,-5.7 86.44,-8.19 122.91,-27.47 42.14,-22.28 52.81,-58.1 14.77,-92.05 -43.42,-38.76 -208.88,-40.68 -234.19,-67.19 -5.46,-42.67 82.63,-39.43 114.64,-25.9 27.78,11.75 22.4,27.11 53.03,21.43 23.2,-4.3 46.69,-9.71 69.91,-13.32 -18.35,-45 -102.17,-53.3 -142.64,-57.45l-1.84 -27.06 -66.24 -0.3c-2.83,47.23 10.32,16.24 -69.11,37.3 -76.41,20.27 -102.33,73.19 -47.94,106.29 75.13,45.72 265.95,28.11 218.87,87.73 -19.43,24.6 -100.9,21.17 -133.91,5.42 -15.93,-7.6 -16.56,-14.58 -28.02,-25.87z"/>
   <path class="fil0" d="M492.06 710.36c-2.25,-2.39 3.48,-2.55 -6.3,-4.88 9.32,-1.94 10.53,-0.86 16.44,-5.49 -9.49,-0.07 -14.92,0.04 -22.17,4.36l12.03 6.01z"/>
  </g>
 </g>
</svg>