<?xml version="1.0" encoding="UTF-8"?>
<!DOCTYPE svg PUBLIC "-//W3C//DTD SVG 1.1//EN" "http://www.w3.org/Graphics/SVG/1.1/DTD/svg11.dtd">
<!-- Creator: CorelDRAW -->
<svg xmlns="http://www.w3.org/2000/svg" xml:space="preserve" width="76.254mm" height="65.1296mm" version="1.1" style="shape-rendering:geometricPrecision; text-rendering:geometricPrecision; image-rendering:optimizeQuality; fill-rule:evenodd; clip-rule:evenodd"
viewBox="0 0 1376.96 1176.08"
 xmlns:xlink="http://www.w3.org/1999/xlink"
 xmlns:xodm="http://www.corel.com/coreldraw/odm/2003">
 <defs>
  <style type="text/css">
   <![CDATA[
    .fil0 {fill:#5a2775}
   ]]>
  </style>
 </defs>
 <g id="Capa_x0020_1">
  <metadata id="CorelCorpID_0Corel-Layer"/>
  <g id="_1826138414048">
   <path class="fil0" d="M124.58 1035.24c50.32,-17 72.5,59.21 24.76,74.55 -49.7,15.96 -74.2,-57.85 -24.76,-74.55zm-114.1 -46.21c6.88,89.65 -11.46,194.92 96.33,186.59 29.69,-2.29 104.86,-3.5 127.46,-14.58 20.25,-9.93 25.5,-29.23 40.44,-31.13l203.58 8.37c87.54,3.17 179.51,6.83 268.22,12.52 108.07,6.93 153.27,-0.77 230.7,-48.61l352.54 -214.76c25.68,-15.88 62.33,-45.82 40.6,-90.88 -19.18,-39.78 -55.79,-34.28 -94.94,-17.54 -114.46,48.94 -221.42,135.73 -269.73,155.54 -74.6,30.58 -298.68,44.36 -380.59,45.83 -33.42,0.6 -35.57,-25.61 -16.5,-32.82 17.77,-6.72 280.52,-24.05 317.34,-33.68 31.67,-8.28 59.16,-47.09 43.14,-89.87 -15.2,-40.61 -48.1,-42.01 -98.9,-42.67 -61.99,-0.81 -226.22,0.43 -276.09,-7.62 -40.28,-6.5 -74.58,-19.83 -116.88,-25.37 -136.04,-17.83 -189.64,34.26 -236.19,37.58 -16.67,-15.77 -23.08,-28.74 -56.68,-28.48 -25.62,0.2 -53.92,3.34 -79.92,4.91 -26.04,1.58 -52.53,1.67 -71.86,13.91 -33.59,21.28 -32.54,49.83 -32.54,79.61l10.48 133.16z"/>
   <path class="fil0" d="M746.79 613.95c-0.17,-35.93 -4.64,-246.55 1.96,-261.41l223.24 -1.13c12.8,73.96 -38.57,138.57 -72.07,170.63 -28.4,27.18 -122.85,85.93 -153.13,91.91zm-226.89 -445.1c155.79,-25.68 193.4,-78.02 226.51,-87.62l0.31 269.92 -226.57 -0.83 -0.25 -181.47zm220.27 -168.17c-16.62,3.65 -70.36,42.19 -102.99,57.68 -35.87,17.04 -78.48,31.97 -124.75,37.34 -69.5,8.06 -65.7,24.07 -65.7,94.91 0,91.05 -10.67,222.05 28.51,294.35 36.94,68.17 96.59,120.32 163.93,158.4 22.81,12.9 86.92,47.57 116.76,43.76 21.15,-2.7 89.36,-38.61 109.57,-49.94 34.68,-19.43 69.36,-46.6 92.71,-69.74 23.62,-23.4 48.26,-56.67 66.42,-93.42 22.48,-45.49 22.5,-83 22.45,-139.02 -0.18,-236.63 22.15,-222.72 -79.77,-241.4 -144.62,-26.51 -187.94,-101.53 -227.14,-92.93z"/>
   <path class="fil0" d="M1036.47 852.09c9.51,-1.2 91.79,-50.59 107.96,-59.77l107.69 -62.8c-2.36,-2.88 0.67,-1.22 -5.65,-5.06 -28.82,-17.49 -83.06,16.03 -109.36,29.65 -30.07,15.58 -76.16,40.74 -106.04,51.82l5.39 46.16z"/>
   <path class="fil0" d="M976.76 737.64c5.63,7.52 20.71,22.53 30.07,26.84 4.71,0.64 100.04,-46.43 125.51,-56.33 6.5,-2.53 13.43,-4.61 18.33,-9.56 -27.88,-22.35 -59.88,-4.14 -88.46,6.31 -25.39,9.28 -62.52,21.15 -85.45,32.74z"/>
  </g>
 </g>
</svg>