<?xml version="1.0" encoding="UTF-8"?>
<!DOCTYPE svg PUBLIC "-//W3C//DTD SVG 1.1//EN" "http://www.w3.org/Graphics/SVG/1.1/DTD/svg11.dtd">
<!-- Creator: CorelDRAW -->
<svg xmlns="http://www.w3.org/2000/svg" xml:space="preserve" width="4.9614mm" height="4.9845mm" version="1.1" style="shape-rendering:geometricPrecision; text-rendering:geometricPrecision; image-rendering:optimizeQuality; fill-rule:evenodd; clip-rule:evenodd"
viewBox="0 0 131.38 131.99"
 xmlns:xlink="http://www.w3.org/1999/xlink"
 xmlns:xodm="http://www.corel.com/coreldraw/odm/2003">
 <defs>
  <style type="text/css">
   <![CDATA[
    .fil0 {fill:#5a2775}
   ]]>
  </style>
 </defs>
 <g id="Capa_x0020_1">
  <metadata id="CorelCorpID_0Corel-Layer"/>
  <g id="_2840570177232">
   <path class="fil0" d="M15.84 116.39c0.07,-1.77 2.33,-9.05 2.94,-11.21 0.55,-1.95 1.07,-3.84 1.56,-5.66 0.82,-3.05 1.24,-2.5 -0.3,-4.95 -3.68,-5.87 -6.59,-12.65 -7.82,-20.74 -6.39,-41.96 35.41,-74.72 74.49,-58.62 4.5,1.86 11.97,6.29 15.3,9.56 3.57,3.52 5.06,4.72 8.41,9.49 1.92,2.74 3.61,5.56 5.14,9.02 3.17,7.18 4.96,15.12 4.68,24.01 -0.56,17.54 -8.97,31.83 -22.24,42 -17.03,13.05 -41.34,13.91 -60.28,2.63 -2.18,-1.3 -2.58,-0.55 -5.29,0.14 -5.45,1.38 -11.33,3.16 -16.58,4.32zm-15.38 -50.83c0,8.96 2,18.19 5.51,26.17 1.06,2.41 3.3,5.81 3.01,7.32 -0.46,2.34 -1.58,5.75 -2.27,8.21l-6.7 24.73 33.04 -8.62c2.14,-0.6 1.97,-0.15 3.72,0.71 3.38,1.68 7.42,3.27 11.11,4.29 42.75,11.85 83.52,-20.04 83.52,-62.82 0,-36.15 -29.34,-65.56 -64.94,-65.56 -36.94,0 -65.98,29.4 -65.98,65.56z"/>
   <path class="fil0" d="M41.83 33.38c-4.21,0.94 -7.57,5.83 -8.91,9.6 -2.75,7.8 -0.09,15.17 3.75,21.78 3.65,6.28 10.79,15.86 16.56,20.47 6.58,5.27 7.75,6.35 17.29,10.3 4.44,1.84 9.4,3.96 14.99,3.27 4.93,-0.61 10.05,-3.96 11.93,-6.72 0.94,-1.37 1.93,-5.09 2.04,-7.15 0.16,-2.93 -0.57,-2.63 -4.42,-4.75 -1.77,-0.97 -10.64,-6 -12.4,-5.82 -1.27,0.13 -1.75,1.15 -2.43,1.99l-4.3 4.9c-0.74,0.88 -1.36,1.72 -3.22,1.43 -2.81,-0.44 -10.13,-5.56 -11.73,-6.94 -3.26,-2.84 -6.15,-5.69 -8.73,-9.67 -4.3,-6.63 -4.32,-5.94 0.66,-11.31 3.48,-3.74 1.67,-5.44 -1.13,-13.08 -1.63,-4.46 -2.33,-10 -9.96,-8.3z"/>
  </g>
 </g>
</svg>